<svg xmlns="http://www.w3.org/2000/svg" width="1080" height="1080" viewBox="0 0 1080 1080" version="1.1"><path d="M 752.154 357.750 C 727.893 471.669, 694 632.003, 694 632.855 C 694 633.678, 699.749 634, 714.429 634 L 734.858 634 735.963 628.750 C 736.571 625.862, 741.914 600.550, 747.836 572.500 L 758.604 521.500 767.363 520.829 C 792.352 518.914, 815.625 504.824, 830.674 482.500 C 839.998 468.668, 846.986 449.685, 850.939 427.452 C 852.451 418.949, 852.499 400.625, 851.028 393.500 C 847.814 377.933, 838.702 365.574, 825.730 359.188 C 814.903 353.858, 808.732 353.037, 779.333 353.017 L 753.166 353 752.154 357.750 M 785 395.874 C 785 396.354, 781.176 414.692, 776.502 436.624 C 771.829 458.556, 768.004 477.128, 768.002 477.895 C 768 479.007, 769.370 479.175, 774.750 478.721 C 789.212 477.501, 797.630 470.592, 802.618 455.850 C 808.373 438.837, 811.732 412.685, 809.062 405.663 C 807.591 401.794, 802.949 398.082, 797.568 396.474 C 792.128 394.848, 785 394.507, 785 395.874" stroke="none" fill="#ffffff" fill-rule="evenodd"/><path d="M 466.031 315.601 C 455.473 318.439, 446.237 323.728, 438.435 331.404 C 431.570 338.158, 430.950 338.540, 428.799 337.330 C 422.396 333.728, 410.778 331, 401.843 331 C 380.715 331, 363.476 340.366, 352.042 358.056 C 349.733 361.628, 348.379 364.626, 348.983 364.828 C 349.579 365.026, 352.152 364.209, 354.700 363.011 C 366.117 357.644, 382.371 355.629, 394.201 358.113 C 401.005 359.541, 412.807 364.954, 418.946 369.461 C 425.034 373.930, 430.399 381.809, 432.579 389.485 C 436.901 404.703, 429.608 441.182, 418.432 460.252 C 404.920 483.307, 380.950 501.875, 357 507.841 C 344.286 511.007, 334.734 512.954, 334.032 512.520 C 330.636 510.421, 329.892 486.534, 332.946 477.657 C 334.017 474.545, 334.555 472, 334.142 472 C 332.375 472, 323.240 478.583, 317.781 483.791 C 307.569 493.531, 300.555 505.614, 297.052 519.500 L 295.286 526.500 277.893 537.279 C 268.327 543.207, 258.959 548.976, 257.076 550.098 L 253.653 552.137 260.076 555.695 C 275.061 563.995, 286.634 573.883, 295.940 586.337 C 311.030 606.530, 318.224 627.317, 318.404 651.250 C 318.469 659.837, 318.861 663.999, 319.606 664 C 321.231 664, 355.500 647.423, 362.500 643.250 C 370.059 638.745, 378.519 632.003, 396.384 616.250 C 412.341 602.180, 416.924 599.448, 427.240 597.857 C 439.753 595.927, 451.581 600.291, 460.387 610.086 C 462.817 612.789, 465.132 615, 465.531 615 C 465.930 615, 466.053 611.478, 465.804 607.173 C 464.931 592.098, 455.289 578.187, 440.765 571.050 L 434.030 567.740 437.557 561.620 C 452.864 535.059, 460.727 513.120, 465.195 484.500 C 467.243 471.382, 467.387 466.906, 467.477 413.446 L 467.573 356.393 470.239 350.946 C 476.781 337.578, 491.983 327.945, 509.040 326.360 C 513.425 325.952, 515.950 325.291, 515.754 324.603 C 515.237 322.788, 501.286 316.334, 495.268 315.125 C 487.583 313.582, 472.640 313.825, 466.031 315.601 M 568 494.500 L 568 672 745.500 672 L 923 672 923 494.500 L 923 317 745.500 317 L 568 317 568 494.500 M 231.819 324.531 C 229.244 325.871, 226.857 327.422, 226.515 327.976 C 226.173 328.530, 227.508 333.022, 229.483 337.958 C 240.840 366.343, 239.765 396.823, 226.484 423.032 C 224.962 426.036, 211.409 447.287, 196.368 470.256 C 181.326 493.225, 167.669 514.693, 166.019 517.962 C 160.416 529.063, 157.818 540.059, 157.268 555 C 156.264 582.336, 163.684 605.462, 180.746 628.172 C 203.938 659.040, 240.298 675.891, 278.944 673.679 C 293.589 672.841, 309.384 669.380, 311.235 666.603 C 312.517 664.679, 312.057 644.589, 310.532 635.881 C 304.878 603.594, 284.259 575.698, 255.279 561.128 C 251.857 559.408, 248.422 558, 247.646 558 C 246.869 558, 242.212 561.938, 237.296 566.750 C 222.930 580.814, 210.645 597.257, 200.955 615.393 L 195.804 625.034 192.532 620.899 C 171.520 594.346, 165.250 555.752, 177.406 527.788 C 179.269 523.503, 192.888 501.600, 208.906 477.126 C 224.426 453.414, 238.624 430.748, 240.457 426.757 C 253.039 399.365, 254.961 370.828, 246.142 342.333 C 243.988 335.373, 238.018 321.976, 237.102 322.047 C 236.771 322.072, 234.393 323.190, 231.819 324.531 M 752.154 357.750 C 727.893 471.669, 694 632.003, 694 632.855 C 694 633.678, 699.749 634, 714.429 634 L 734.858 634 735.963 628.750 C 736.571 625.862, 741.914 600.550, 747.836 572.500 L 758.604 521.500 767.363 520.829 C 792.352 518.914, 815.625 504.824, 830.674 482.500 C 839.998 468.668, 846.986 449.685, 850.939 427.452 C 852.451 418.949, 852.499 400.625, 851.028 393.500 C 847.814 377.933, 838.702 365.574, 825.730 359.188 C 814.903 353.858, 808.732 353.037, 779.333 353.017 L 753.166 353 752.154 357.750 M 785 395.874 C 785 396.354, 781.176 414.692, 776.502 436.624 C 771.829 458.556, 768.004 477.128, 768.002 477.895 C 768 479.007, 769.370 479.175, 774.750 478.721 C 789.212 477.501, 797.630 470.592, 802.618 455.850 C 808.373 438.837, 811.732 412.685, 809.062 405.663 C 807.591 401.794, 802.949 398.082, 797.568 396.474 C 792.128 394.848, 785 394.507, 785 395.874 M 244.589 625.077 C 236.457 634.741, 249.294 646.114, 257.904 636.873 C 262.825 631.590, 258.373 622, 251 622 C 247.960 622, 246.648 622.629, 244.589 625.077 M 349.655 708.750 C 349.401 709.163, 348.721 711.975, 348.144 715 C 347.567 718.025, 346.150 724.775, 344.993 730 C 343.837 735.225, 342.462 741.750, 341.938 744.500 C 341.413 747.250, 340.300 752.650, 339.464 756.500 C 338.628 760.350, 337.673 765.188, 337.341 767.250 L 336.737 771 341.761 771 L 346.785 771 348.351 764.250 C 349.213 760.538, 350.449 754.954, 351.097 751.843 L 352.277 746.186 356.665 745.528 C 362.608 744.636, 368.026 739.363, 370.858 731.712 C 374.826 720.993, 373.158 712.877, 366.318 709.615 C 362.858 707.965, 350.534 707.325, 349.655 708.750 M 406.109 712.250 C 405.476 714.587, 404.557 718.525, 404.067 721 C 402.392 729.456, 400.081 740.494, 397.996 750 C 395.521 761.278, 394 768.945, 394 770.136 C 394 770.611, 398.897 771, 404.881 771 L 415.763 771 416.881 766.557 C 417.497 764.114, 418 761.864, 418 761.557 C 418 761.251, 415.252 761, 411.893 761 C 406.650 761, 405.875 760.769, 406.414 759.364 C 406.759 758.464, 407.585 754.864, 408.249 751.364 L 409.456 745 413.570 745 C 417.479 745, 417.741 744.808, 418.842 741.134 C 420.781 734.663, 420.506 734, 415.883 734 C 412.105 734, 411.816 733.815, 412.361 731.750 C 412.688 730.513, 413.488 727.138, 414.137 724.250 L 415.318 719 420.624 719 C 426.501 719, 427.296 718.268, 428.523 711.732 L 429.223 708 418.241 708 L 407.260 708 406.109 712.250 M 464.450 709.988 C 459.603 713.095, 456.623 719.379, 456.635 726.470 C 456.643 731.392, 457.413 734.200, 460.822 741.751 C 465.278 751.618, 465.945 756.206, 463.443 759.777 C 460.719 763.667, 459 762.592, 459 757 L 459 752 454.107 752 C 448.429 752, 448 752.599, 448 760.526 C 448 767.654, 450.703 770.987, 457.063 771.704 C 465.514 772.656, 471.991 767.813, 474.965 758.318 C 476.833 752.356, 475.831 746.359, 471.381 736.874 C 466.225 725.883, 466.168 717.119, 471.250 717.015 C 471.663 717.007, 472 719.053, 472 721.561 L 472 726.123 476.750 725.434 C 479.363 725.055, 481.887 724.520, 482.361 724.245 C 482.834 723.970, 483.026 721.035, 482.786 717.724 C 482.443 712.977, 481.867 711.311, 480.065 709.851 C 476.911 707.298, 468.533 707.372, 464.450 709.988 M 513.523 709.250 C 512.147 713.403, 511.278 717.945, 511.766 718.433 C 512.078 718.745, 513.893 719, 515.798 719 C 519.239 719, 519.259 719.027, 518.684 722.750 C 518.365 724.813, 516.715 733.025, 515.017 741 C 511.713 756.517, 509 769.883, 509 770.640 C 509 770.896, 511.363 770.969, 514.250 770.802 L 519.500 770.500 520.622 765 C 522.143 757.546, 524.517 746.434, 527.031 735 C 528.179 729.775, 529.376 724.038, 529.691 722.250 C 530.230 719.183, 530.501 719, 534.512 719 C 538.707 719, 538.777 718.942, 539.881 714.557 C 540.497 712.114, 541 709.639, 541 709.057 C 541 707.435, 514.062 707.624, 513.523 709.250 M 570.485 709.250 C 570.237 709.938, 568.462 717.925, 566.541 727 C 561.037 753.004, 559.929 758.131, 558.547 764 C 557.834 767.025, 557.446 769.837, 557.685 770.250 C 557.923 770.663, 562.953 771, 568.862 771 L 579.605 771 580.629 766 L 581.654 761 575.759 761 C 570.636 761, 569.926 760.771, 570.329 759.250 C 570.585 758.288, 571.352 754.688, 572.034 751.250 L 573.273 745 577.591 745 C 581.802 745, 581.925 744.907, 582.542 741.250 C 582.890 739.188, 583.391 736.712, 583.655 735.750 C 584.055 734.289, 583.455 734, 580.022 734 L 575.909 734 576.549 730.250 C 576.901 728.188, 577.614 724.813, 578.133 722.750 L 579.077 719 584.563 719 C 589.532 719, 590.141 718.758, 591.025 716.435 C 591.561 715.024, 592 712.549, 592 710.935 L 592 708 581.469 708 C 573.951 708, 570.808 708.358, 570.485 709.250 M 620.656 708.750 C 620.402 709.163, 619.875 711.638, 619.484 714.250 L 618.773 719 622.954 719 C 626.479 719, 627.048 719.275, 626.584 720.750 C 626.282 721.712, 625.605 724.750, 625.082 727.500 C 624.558 730.250, 622.301 740.987, 620.065 751.360 C 617.829 761.734, 616 770.396, 616 770.610 C 616 770.825, 618.416 771, 621.369 771 C 626.643 771, 626.748 770.942, 627.309 767.750 C 627.624 765.962, 628.821 760.225, 629.969 755 C 632.483 743.566, 634.857 732.454, 636.378 725 L 637.500 719.500 641.960 719 C 646.705 718.468, 647.669 717.129, 647.900 710.750 L 648 708 634.559 708 C 627.166 708, 620.910 708.337, 620.656 708.750 M 680.204 711.796 C 675.983 716.017, 675.260 718.240, 670.051 743 C 668.373 750.975, 667 759.598, 667 762.161 C 667 766.179, 667.442 767.195, 670.205 769.519 C 675.849 774.268, 684.829 771.966, 689.779 764.500 C 691.623 761.719, 692.775 757.515, 696.561 739.750 C 697.353 736.038, 698.728 729.833, 699.617 725.961 C 701.450 717.985, 700.949 713.639, 697.810 710.298 C 696.037 708.411, 694.610 708, 689.826 708 C 684.414 708, 683.730 708.270, 680.204 711.796 M 731.280 712.981 C 730.738 715.721, 730.529 718.196, 730.814 718.481 C 731.100 718.766, 732.833 719, 734.667 719 C 736.885 719, 738 719.477, 738 720.425 C 738 721.208, 736.028 730.996, 733.618 742.175 C 731.208 753.354, 728.919 764.413, 728.530 766.750 L 727.824 771 732.943 771 C 736.187 771, 738.190 770.542, 738.411 769.750 C 738.602 769.063, 739.510 764.900, 740.428 760.500 C 741.347 756.100, 742.729 749.575, 743.500 746 C 745.105 738.558, 747.996 724.578, 748.618 721.250 C 748.969 719.368, 749.683 719, 752.984 719 C 757.364 719, 758.368 717.883, 759.523 711.732 L 760.223 708 746.244 708 L 732.265 708 731.280 712.981 M 685.906 720.747 C 685.332 722.258, 684.033 727.545, 683.021 732.497 C 682.009 737.449, 680.399 745.100, 679.445 749.500 C 677.217 759.766, 677.152 761.500, 678.996 761.500 C 680.728 761.500, 682.462 756.741, 684.645 746 C 685.483 741.875, 686.810 735.575, 687.595 732 C 690.321 719.577, 690.435 718, 688.607 718 C 687.696 718, 686.481 719.236, 685.906 720.747 M 357.209 723.250 C 355.417 730.652, 354.793 736, 355.721 736 C 359.102 736, 363.379 725.037, 361.703 720.668 C 360.520 717.585, 358.267 718.880, 357.209 723.250" stroke="none" fill="#d6d5d5" fill-rule="evenodd"/></svg>