<svg xmlns="http://www.w3.org/2000/svg" width="821" height="416" viewBox="0 0 821 416" version="1.1"><path d="M 339.031 29.601 C 328.473 32.439, 319.237 37.728, 311.435 45.404 C 304.570 52.158, 303.950 52.540, 301.799 51.330 C 295.396 47.728, 283.778 45, 274.843 45 C 253.715 45, 236.476 54.366, 225.042 72.056 C 222.733 75.628, 221.379 78.626, 221.983 78.828 C 222.579 79.026, 225.152 78.209, 227.700 77.011 C 239.117 71.644, 255.371 69.629, 267.201 72.113 C 274.005 73.541, 285.807 78.954, 291.946 83.461 C 298.034 87.930, 303.399 95.809, 305.579 103.485 C 309.901 118.703, 302.608 155.182, 291.432 174.252 C 277.920 197.307, 253.950 215.875, 230 221.841 C 217.286 225.007, 207.734 226.954, 207.032 226.520 C 203.636 224.421, 202.892 200.534, 205.946 191.657 C 207.017 188.545, 207.555 186, 207.142 186 C 205.375 186, 196.240 192.583, 190.781 197.791 C 180.569 207.531, 173.555 219.614, 170.052 233.500 L 168.286 240.500 150.893 251.279 C 141.327 257.207, 131.959 262.976, 130.076 264.098 L 126.653 266.137 133.076 269.695 C 148.061 277.995, 159.634 287.883, 168.940 300.337 C 184.030 320.530, 191.224 341.317, 191.404 365.250 C 191.469 373.837, 191.861 377.999, 192.606 378 C 194.231 378, 228.500 361.423, 235.500 357.250 C 243.059 352.745, 251.519 346.003, 269.384 330.250 C 285.341 316.180, 289.924 313.448, 300.240 311.857 C 312.753 309.927, 324.581 314.291, 333.387 324.086 C 335.817 326.789, 338.132 329, 338.531 329 C 338.930 329, 339.053 325.478, 338.804 321.173 C 337.931 306.098, 328.289 292.187, 313.765 285.050 L 307.030 281.740 310.557 275.620 C 325.864 249.059, 333.727 227.120, 338.195 198.500 C 340.243 185.382, 340.387 180.906, 340.477 127.446 L 340.573 70.393 343.239 64.946 C 349.781 51.578, 364.983 41.945, 382.040 40.360 C 386.425 39.952, 388.950 39.291, 388.754 38.603 C 388.237 36.788, 374.286 30.334, 368.268 29.125 C 360.583 27.582, 345.640 27.825, 339.031 29.601 M 441 208.500 L 441 386 618.500 386 L 796 386 796 208.500 L 796 31 618.500 31 L 441 31 441 208.500 M 104.819 38.531 C 102.244 39.871, 99.857 41.422, 99.515 41.976 C 99.173 42.530, 100.508 47.022, 102.483 51.958 C 113.840 80.343, 112.765 110.823, 99.484 137.032 C 97.962 140.036, 84.409 161.287, 69.368 184.256 C 54.326 207.225, 40.669 228.693, 39.019 231.962 C 33.416 243.063, 30.818 254.059, 30.268 269 C 29.264 296.336, 36.684 319.462, 53.746 342.172 C 76.938 373.040, 113.298 389.891, 151.944 387.679 C 166.589 386.841, 182.384 383.380, 184.235 380.603 C 185.517 378.679, 185.057 358.589, 183.532 349.881 C 177.878 317.594, 157.259 289.698, 128.279 275.128 C 124.857 273.408, 121.422 272, 120.646 272 C 119.869 272, 115.212 275.938, 110.296 280.750 C 95.930 294.814, 83.645 311.257, 73.955 329.393 L 68.804 339.034 65.532 334.899 C 44.520 308.346, 38.250 269.752, 50.406 241.788 C 52.269 237.503, 65.888 215.600, 81.906 191.126 C 97.426 167.414, 111.624 144.748, 113.457 140.757 C 126.039 113.365, 127.961 84.828, 119.142 56.333 C 116.988 49.373, 111.018 35.976, 110.102 36.047 C 109.771 36.072, 107.393 37.190, 104.819 38.531 M 625.154 71.750 C 600.893 185.669, 567 346.003, 567 346.855 C 567 347.678, 572.749 348, 587.429 348 L 607.858 348 608.963 342.750 C 609.571 339.863, 614.914 314.550, 620.836 286.500 L 631.604 235.500 640.363 234.829 C 665.352 232.914, 688.625 218.824, 703.674 196.500 C 712.998 182.668, 719.986 163.685, 723.939 141.452 C 725.451 132.949, 725.499 114.625, 724.028 107.500 C 720.814 91.933, 711.702 79.574, 698.730 73.188 C 687.903 67.858, 681.732 67.037, 652.333 67.017 L 626.166 67 625.154 71.750 M 658 109.874 C 658 110.354, 654.176 128.692, 649.502 150.624 C 644.829 172.556, 641.004 191.128, 641.002 191.895 C 641 193.007, 642.370 193.175, 647.750 192.721 C 662.212 191.501, 670.630 184.592, 675.618 169.850 C 681.373 152.837, 684.732 126.685, 682.062 119.663 C 680.591 115.794, 675.949 112.082, 670.568 110.474 C 665.128 108.848, 658 108.507, 658 109.874 M 117.589 339.077 C 109.457 348.741, 122.294 360.114, 130.904 350.873 C 135.825 345.590, 131.373 336, 124 336 C 120.960 336, 119.648 336.629, 117.589 339.077" stroke="none" fill="#59a96a" fill-rule="evenodd"/><path d="M 625.154 71.750 C 600.893 185.669, 567 346.003, 567 346.855 C 567 347.678, 572.749 348, 587.429 348 L 607.858 348 608.963 342.750 C 609.571 339.863, 614.914 314.550, 620.836 286.500 L 631.604 235.500 640.363 234.829 C 665.352 232.914, 688.625 218.824, 703.674 196.500 C 712.998 182.668, 719.986 163.685, 723.939 141.452 C 725.451 132.949, 725.499 114.625, 724.028 107.500 C 720.814 91.933, 711.702 79.574, 698.730 73.188 C 687.903 67.858, 681.732 67.037, 652.333 67.017 L 626.166 67 625.154 71.750 M 658 109.874 C 658 110.354, 654.176 128.692, 649.502 150.624 C 644.829 172.556, 641.004 191.128, 641.002 191.895 C 641 193.007, 642.370 193.175, 647.750 192.721 C 662.212 191.501, 670.630 184.592, 675.618 169.850 C 681.373 152.837, 684.732 126.685, 682.062 119.663 C 680.591 115.794, 675.949 112.082, 670.568 110.474 C 665.128 108.848, 658 108.507, 658 109.874" stroke="none" fill="#ffffff" fill-rule="evenodd"/></svg>